<svg width="10" height="12" viewBox="0 0 10 12" fill="none" xmlns="http://www.w3.org/2000/svg">
<path fill-rule="evenodd" clip-rule="evenodd" d="M8.97437 6.08819V7.85291C8.97437 8.56913 8.9737 9.04615 8.94633 9.41288C8.91962 9.76926 8.87221 9.93264 8.8248 10.0367C8.67255 10.3649 8.41615 10.6296 8.0983 10.7867C7.99747 10.8357 7.83922 10.8846 7.49399 10.9122C7.13876 10.9405 6.67669 10.9412 5.98291 10.9412C5.28913 10.9412 4.82706 10.9405 4.47182 10.9122C4.12661 10.8846 3.96835 10.8357 3.86752 10.7867C3.55568 10.633 3.30261 10.3752 3.1497 10.0554C3.40478 10.0588 3.69124 10.0588 4.01709 10.0588C5.3726 10.0588 6.05043 10.0588 6.57385 9.801C7.10404 9.53973 7.53139 9.09855 7.78445 8.55123C8.03418 8.01078 8.03418 7.31111 8.03418 5.91174V4.14703C8.03418 3.75548 8.03418 3.4184 8.02884 3.12473C8.05488 3.13438 8.07758 3.14472 8.09828 3.15437C8.41613 3.31154 8.67254 3.57625 8.82478 3.90438C8.87219 4.00847 8.9196 4.17184 8.94631 4.52824C8.97369 4.89496 8.97437 5.37197 8.97437 6.08819ZM7.94204 2.017C7.90598 1.82606 7.85524 1.66061 7.78446 1.50758C7.53138 0.960234 7.10403 0.519055 6.57385 0.257807C6.05035 -1.05185e-07 5.3726 0 4.01709 0C2.66158 0 1.98375 -1.05185e-07 1.46033 0.257807C0.93014 0.519073 0.502788 0.960251 0.249727 1.50758C-1.01889e-07 2.04802 0 2.74769 0 4.14706V5.91177C0 7.31114 -1.01889e-07 8.0109 0.249727 8.55126C0.502805 9.0986 0.930157 9.53978 1.46033 9.80103C1.63527 9.88719 1.82825 9.9451 2.05796 9.983C2.09401 10.1739 2.14476 10.3394 2.21554 10.4924C2.46862 11.0398 2.89597 11.4809 3.42615 11.7422C3.94965 12 4.6274 12 5.98291 12C7.33842 12 8.01625 12 8.53967 11.7422C9.06986 11.4809 9.49721 11.0397 9.75027 10.4924C10 9.95198 10 9.25231 10 7.85294V6.08823C10 4.68886 10 3.9891 9.75027 3.44875C9.49719 2.9014 9.06984 2.46022 8.53967 2.19897C8.36473 2.11281 8.17175 2.0549 7.94204 2.017ZM7.00855 5.91172V4.14701C7.00855 3.43078 7.00788 2.95376 6.98051 2.58704C6.9538 2.23065 6.90639 2.06727 6.85898 1.96317C6.70674 1.63504 6.45033 1.37034 6.13248 1.21317C6.03165 1.16423 5.8734 1.11528 5.52817 1.08771C5.17294 1.05945 4.71087 1.05876 4.01709 1.05876C3.32331 1.05876 2.86124 1.05945 2.50601 1.08771C2.16079 1.11528 2.00253 1.16423 1.9017 1.21317C1.58385 1.37034 1.32744 1.63504 1.1752 1.96317C1.12779 2.06726 1.08038 2.23063 1.05367 2.58704C1.02629 2.95376 1.02562 3.43078 1.02562 4.14701V5.91172C1.02562 6.62795 1.02629 7.10497 1.05367 7.47169C1.08038 7.82808 1.12779 7.99145 1.1752 8.09555C1.32744 8.42369 1.58385 8.68839 1.9017 8.84556C2.00252 8.8945 2.16077 8.94344 2.50601 8.97102C2.86124 8.99928 3.32331 8.99997 4.01709 8.99997C4.71087 8.99997 5.17294 8.99928 5.52817 8.97102C5.87339 8.94344 6.03164 8.8945 6.13248 8.84556C6.45033 8.68839 6.70674 8.42369 6.85898 8.09555C6.90639 7.99146 6.9538 7.82809 6.98051 7.47169C7.00789 7.10497 7.00855 6.62795 7.00855 5.91172Z" fill="white" fill-opacity="0.16"/>
<path fill-rule="evenodd" clip-rule="evenodd" d="M8.97437 6.08819V7.85291C8.97437 8.56913 8.9737 9.04615 8.94633 9.41288C8.91962 9.76926 8.87221 9.93264 8.8248 10.0367C8.67255 10.3649 8.41615 10.6296 8.0983 10.7867C7.99747 10.8357 7.83922 10.8846 7.49399 10.9122C7.13876 10.9405 6.67669 10.9412 5.98291 10.9412C5.28913 10.9412 4.82706 10.9405 4.47182 10.9122C4.12661 10.8846 3.96835 10.8357 3.86752 10.7867C3.55568 10.633 3.30261 10.3752 3.1497 10.0554C3.40478 10.0588 3.69124 10.0588 4.01709 10.0588C5.3726 10.0588 6.05043 10.0588 6.57385 9.801C7.10404 9.53973 7.53139 9.09855 7.78445 8.55123C8.03418 8.01078 8.03418 7.31111 8.03418 5.91174V4.14703C8.03418 3.75548 8.03418 3.4184 8.02884 3.12473C8.05488 3.13438 8.07758 3.14472 8.09828 3.15437C8.41613 3.31154 8.67254 3.57625 8.82478 3.90438C8.87219 4.00847 8.9196 4.17184 8.94631 4.52824C8.97369 4.89496 8.97437 5.37197 8.97437 6.08819ZM7.94204 2.017C7.90598 1.82606 7.85524 1.66061 7.78446 1.50758C7.53138 0.960234 7.10403 0.519055 6.57385 0.257807C6.05035 -1.05185e-07 5.3726 0 4.01709 0C2.66158 0 1.98375 -1.05185e-07 1.46033 0.257807C0.93014 0.519073 0.502788 0.960251 0.249727 1.50758C-1.01889e-07 2.04802 0 2.74769 0 4.14706V5.91177C0 7.31114 -1.01889e-07 8.0109 0.249727 8.55126C0.502805 9.0986 0.930157 9.53978 1.46033 9.80103C1.63527 9.88719 1.82825 9.9451 2.05796 9.983C2.09401 10.1739 2.14476 10.3394 2.21554 10.4924C2.46862 11.0398 2.89597 11.4809 3.42615 11.7422C3.94965 12 4.6274 12 5.98291 12C7.33842 12 8.01625 12 8.53967 11.7422C9.06986 11.4809 9.49721 11.0397 9.75027 10.4924C10 9.95198 10 9.25231 10 7.85294V6.08823C10 4.68886 10 3.9891 9.75027 3.44875C9.49719 2.9014 9.06984 2.46022 8.53967 2.19897C8.36473 2.11281 8.17175 2.0549 7.94204 2.017ZM7.00855 5.91172V4.14701C7.00855 3.43078 7.00788 2.95376 6.98051 2.58704C6.9538 2.23065 6.90639 2.06727 6.85898 1.96317C6.70674 1.63504 6.45033 1.37034 6.13248 1.21317C6.03165 1.16423 5.8734 1.11528 5.52817 1.08771C5.17294 1.05945 4.71087 1.05876 4.01709 1.05876C3.32331 1.05876 2.86124 1.05945 2.50601 1.08771C2.16079 1.11528 2.00253 1.16423 1.9017 1.21317C1.58385 1.37034 1.32744 1.63504 1.1752 1.96317C1.12779 2.06726 1.08038 2.23063 1.05367 2.58704C1.02629 2.95376 1.02562 3.43078 1.02562 4.14701V5.91172C1.02562 6.62795 1.02629 7.10497 1.05367 7.47169C1.08038 7.82808 1.12779 7.99145 1.1752 8.09555C1.32744 8.42369 1.58385 8.68839 1.9017 8.84556C2.00252 8.8945 2.16077 8.94344 2.50601 8.97102C2.86124 8.99928 3.32331 8.99997 4.01709 8.99997C4.71087 8.99997 5.17294 8.99928 5.52817 8.97102C5.87339 8.94344 6.03164 8.8945 6.13248 8.84556C6.45033 8.68839 6.70674 8.42369 6.85898 8.09555C6.90639 7.99146 6.9538 7.82809 6.98051 7.47169C7.00789 7.10497 7.00855 6.62795 7.00855 5.91172Z" fill="url(#paint0_linear_535_16328)" fill-opacity="0.2"/>
<path fill-rule="evenodd" clip-rule="evenodd" d="M8.97437 6.08819V7.85291C8.97437 8.56913 8.9737 9.04615 8.94633 9.41288C8.91962 9.76926 8.87221 9.93264 8.8248 10.0367C8.67255 10.3649 8.41615 10.6296 8.0983 10.7867C7.99747 10.8357 7.83922 10.8846 7.49399 10.9122C7.13876 10.9405 6.67669 10.9412 5.98291 10.9412C5.28913 10.9412 4.82706 10.9405 4.47182 10.9122C4.12661 10.8846 3.96835 10.8357 3.86752 10.7867C3.55568 10.633 3.30261 10.3752 3.1497 10.0554C3.40478 10.0588 3.69124 10.0588 4.01709 10.0588C5.3726 10.0588 6.05043 10.0588 6.57385 9.801C7.10404 9.53973 7.53139 9.09855 7.78445 8.55123C8.03418 8.01078 8.03418 7.31111 8.03418 5.91174V4.14703C8.03418 3.75548 8.03418 3.4184 8.02884 3.12473C8.05488 3.13438 8.07758 3.14472 8.09828 3.15437C8.41613 3.31154 8.67254 3.57625 8.82478 3.90438C8.87219 4.00847 8.9196 4.17184 8.94631 4.52824C8.97369 4.89496 8.97437 5.37197 8.97437 6.08819ZM7.94204 2.017C7.90598 1.82606 7.85524 1.66061 7.78446 1.50758C7.53138 0.960234 7.10403 0.519055 6.57385 0.257807C6.05035 -1.05185e-07 5.3726 0 4.01709 0C2.66158 0 1.98375 -1.05185e-07 1.46033 0.257807C0.93014 0.519073 0.502788 0.960251 0.249727 1.50758C-1.01889e-07 2.04802 0 2.74769 0 4.14706V5.91177C0 7.31114 -1.01889e-07 8.0109 0.249727 8.55126C0.502805 9.0986 0.930157 9.53978 1.46033 9.80103C1.63527 9.88719 1.82825 9.9451 2.05796 9.983C2.09401 10.1739 2.14476 10.3394 2.21554 10.4924C2.46862 11.0398 2.89597 11.4809 3.42615 11.7422C3.94965 12 4.6274 12 5.98291 12C7.33842 12 8.01625 12 8.53967 11.7422C9.06986 11.4809 9.49721 11.0397 9.75027 10.4924C10 9.95198 10 9.25231 10 7.85294V6.08823C10 4.68886 10 3.9891 9.75027 3.44875C9.49719 2.9014 9.06984 2.46022 8.53967 2.19897C8.36473 2.11281 8.17175 2.0549 7.94204 2.017ZM7.00855 5.91172V4.14701C7.00855 3.43078 7.00788 2.95376 6.98051 2.58704C6.9538 2.23065 6.90639 2.06727 6.85898 1.96317C6.70674 1.63504 6.45033 1.37034 6.13248 1.21317C6.03165 1.16423 5.8734 1.11528 5.52817 1.08771C5.17294 1.05945 4.71087 1.05876 4.01709 1.05876C3.32331 1.05876 2.86124 1.05945 2.50601 1.08771C2.16079 1.11528 2.00253 1.16423 1.9017 1.21317C1.58385 1.37034 1.32744 1.63504 1.1752 1.96317C1.12779 2.06726 1.08038 2.23063 1.05367 2.58704C1.02629 2.95376 1.02562 3.43078 1.02562 4.14701V5.91172C1.02562 6.62795 1.02629 7.10497 1.05367 7.47169C1.08038 7.82808 1.12779 7.99145 1.1752 8.09555C1.32744 8.42369 1.58385 8.68839 1.9017 8.84556C2.00252 8.8945 2.16077 8.94344 2.50601 8.97102C2.86124 8.99928 3.32331 8.99997 4.01709 8.99997C4.71087 8.99997 5.17294 8.99928 5.52817 8.97102C5.87339 8.94344 6.03164 8.8945 6.13248 8.84556C6.45033 8.68839 6.70674 8.42369 6.85898 8.09555C6.90639 7.99146 6.9538 7.82809 6.98051 7.47169C7.00789 7.10497 7.00855 6.62795 7.00855 5.91172Z" fill="white" fill-opacity="0.32"/>
<defs>
<linearGradient id="paint0_linear_535_16328" x1="5" y1="0" x2="5" y2="12" gradientUnits="userSpaceOnUse">
<stop stop-color="#9D8AF3"/>
<stop offset="1" stop-color="#7351FF"/>
</linearGradient>
</defs>
</svg>
