<svg width="56" height="8" viewBox="0 0 56 8" fill="none" xmlns="http://www.w3.org/2000/svg">
<path d="M-7.80821e-05 7.12012V0.120117H1.33992L5.46992 5.16012H4.81992V0.120117H6.41992V7.12012H5.08992L0.949922 2.08012H1.59992V7.12012H-7.80821e-05ZM12.8761 7.24012C12.3228 7.24012 11.8094 7.15012 11.3361 6.97012C10.8694 6.79012 10.4628 6.53678 10.1161 6.21012C9.77609 5.88345 9.50943 5.50012 9.31609 5.06012C9.12943 4.62012 9.03609 4.14012 9.03609 3.62012C9.03609 3.10012 9.12943 2.62012 9.31609 2.18012C9.50943 1.74012 9.77943 1.35678 10.1261 1.03012C10.4728 0.70345 10.8794 0.450117 11.3461 0.270117C11.8128 0.0901169 12.3194 0.000117064 12.8661 0.000117064C13.4194 0.000117064 13.9261 0.0901169 14.3861 0.270117C14.8528 0.450117 15.2561 0.70345 15.5961 1.03012C15.9428 1.35678 16.2128 1.74012 16.4061 2.18012C16.5994 2.61345 16.6961 3.09345 16.6961 3.62012C16.6961 4.14012 16.5994 4.62345 16.4061 5.07012C16.2128 5.51012 15.9428 5.89345 15.5961 6.22012C15.2561 6.54012 14.8528 6.79012 14.3861 6.97012C13.9261 7.15012 13.4228 7.24012 12.8761 7.24012ZM12.8661 5.86012C13.1794 5.86012 13.4661 5.80678 13.7261 5.70012C13.9928 5.59345 14.2261 5.44012 14.4261 5.24012C14.6261 5.04012 14.7794 4.80345 14.8861 4.53012C14.9994 4.25678 15.0561 3.95345 15.0561 3.62012C15.0561 3.28678 14.9994 2.98345 14.8861 2.71012C14.7794 2.43678 14.6261 2.20012 14.4261 2.00012C14.2328 1.80012 14.0028 1.64678 13.7361 1.54012C13.4694 1.43345 13.1794 1.38012 12.8661 1.38012C12.5528 1.38012 12.2628 1.43345 11.9961 1.54012C11.7361 1.64678 11.5061 1.80012 11.3061 2.00012C11.1061 2.20012 10.9494 2.43678 10.8361 2.71012C10.7294 2.98345 10.6761 3.28678 10.6761 3.62012C10.6761 3.94678 10.7294 4.25012 10.8361 4.53012C10.9494 4.80345 11.1028 5.04012 11.2961 5.24012C11.4961 5.44012 11.7294 5.59345 11.9961 5.70012C12.2628 5.80678 12.5528 5.86012 12.8661 5.86012ZM23.5456 7.12012V0.120117H25.1656V5.80012H28.6756V7.12012H23.5456ZM34.2636 7.24012C33.7103 7.24012 33.1969 7.15012 32.7236 6.97012C32.2569 6.79012 31.8503 6.53678 31.5036 6.21012C31.1636 5.88345 30.8969 5.50012 30.7036 5.06012C30.5169 4.62012 30.4236 4.14012 30.4236 3.62012C30.4236 3.10012 30.5169 2.62012 30.7036 2.18012C30.8969 1.74012 31.1669 1.35678 31.5136 1.03012C31.8603 0.70345 32.2669 0.450117 32.7336 0.270117C33.2003 0.0901169 33.7069 0.000117064 34.2536 0.000117064C34.8069 0.000117064 35.3136 0.0901169 35.7736 0.270117C36.2403 0.450117 36.6436 0.70345 36.9836 1.03012C37.3303 1.35678 37.6003 1.74012 37.7936 2.18012C37.9869 2.61345 38.0836 3.09345 38.0836 3.62012C38.0836 4.14012 37.9869 4.62345 37.7936 5.07012C37.6003 5.51012 37.3303 5.89345 36.9836 6.22012C36.6436 6.54012 36.2403 6.79012 35.7736 6.97012C35.3136 7.15012 34.8103 7.24012 34.2636 7.24012ZM34.2536 5.86012C34.5669 5.86012 34.8536 5.80678 35.1136 5.70012C35.3803 5.59345 35.6136 5.44012 35.8136 5.24012C36.0136 5.04012 36.1669 4.80345 36.2736 4.53012C36.3869 4.25678 36.4436 3.95345 36.4436 3.62012C36.4436 3.28678 36.3869 2.98345 36.2736 2.71012C36.1669 2.43678 36.0136 2.20012 35.8136 2.00012C35.6203 1.80012 35.3903 1.64678 35.1236 1.54012C34.8569 1.43345 34.5669 1.38012 34.2536 1.38012C33.9403 1.38012 33.6503 1.43345 33.3836 1.54012C33.1236 1.64678 32.8936 1.80012 32.6936 2.00012C32.4936 2.20012 32.3369 2.43678 32.2236 2.71012C32.1169 2.98345 32.0636 3.28678 32.0636 3.62012C32.0636 3.94678 32.1169 4.25012 32.2236 4.53012C32.3369 4.80345 32.4903 5.04012 32.6836 5.24012C32.8836 5.44012 33.1169 5.59345 33.3836 5.70012C33.6503 5.80678 33.9403 5.86012 34.2536 5.86012ZM44.1011 7.24012C43.5478 7.24012 43.0344 7.15012 42.5611 6.97012C42.0944 6.79012 41.6878 6.53678 41.3411 6.21012C41.0011 5.88345 40.7344 5.50012 40.5411 5.06012C40.3544 4.62012 40.2611 4.14012 40.2611 3.62012C40.2611 3.10012 40.3544 2.62012 40.5411 2.18012C40.7344 1.74012 41.0044 1.35678 41.3511 1.03012C41.6978 0.70345 42.1044 0.450117 42.5711 0.270117C43.0378 0.0901169 43.5444 0.000117064 44.0911 0.000117064C44.6444 0.000117064 45.1511 0.0901169 45.6111 0.270117C46.0778 0.450117 46.4811 0.70345 46.8211 1.03012C47.1678 1.35678 47.4378 1.74012 47.6311 2.18012C47.8244 2.61345 47.9211 3.09345 47.9211 3.62012C47.9211 4.14012 47.8244 4.62345 47.6311 5.07012C47.4378 5.51012 47.1678 5.89345 46.8211 6.22012C46.4811 6.54012 46.0778 6.79012 45.6111 6.97012C45.1511 7.15012 44.6478 7.24012 44.1011 7.24012ZM44.0911 5.86012C44.4044 5.86012 44.6911 5.80678 44.9511 5.70012C45.2178 5.59345 45.4511 5.44012 45.6511 5.24012C45.8511 5.04012 46.0044 4.80345 46.1111 4.53012C46.2244 4.25678 46.2811 3.95345 46.2811 3.62012C46.2811 3.28678 46.2244 2.98345 46.1111 2.71012C46.0044 2.43678 45.8511 2.20012 45.6511 2.00012C45.4578 1.80012 45.2278 1.64678 44.9611 1.54012C44.6944 1.43345 44.4044 1.38012 44.0911 1.38012C43.7778 1.38012 43.4878 1.43345 43.2211 1.54012C42.9611 1.64678 42.7311 1.80012 42.5311 2.00012C42.3311 2.20012 42.1744 2.43678 42.0611 2.71012C41.9544 2.98345 41.9011 3.28678 41.9011 3.62012C41.9011 3.94678 41.9544 4.25012 42.0611 4.53012C42.1744 4.80345 42.3278 5.04012 42.5211 5.24012C42.7211 5.44012 42.9544 5.59345 43.2211 5.70012C43.4878 5.80678 43.7778 5.86012 44.0911 5.86012ZM51.8909 7.12012V1.44012H49.6509V0.120117H55.7509V1.44012H53.5109V7.12012H51.8909Z" fill="white"/>
</svg>
